<svg width="36" height="36" viewBox="0 0 36 36" fill="none" xmlns="http://www.w3.org/2000/svg">
<mask id="path-1-outside-1_1046_7749" maskUnits="userSpaceOnUse" x="0" y="0" width="36" height="36" fill="black">
<rect fill="white" width="36" height="36"/>
<path fill-rule="evenodd" clip-rule="evenodd" d="M6.95207 2.55265C4.52247 2.55265 2.55289 4.52223 2.55289 6.95183V10.9708H1.00024V6.95183C1.00024 3.66473 3.66497 1 6.95207 1H11.3753V2.55265H6.95207ZM6.95182 33.4406C4.52223 33.4406 2.55265 31.471 2.55265 29.0414V25.0224H1V29.0414C1 32.3285 3.66472 34.9932 6.95182 34.9932H11.3751V33.4406H6.95182ZM33.4433 6.95378C33.4433 4.52418 31.4738 2.5546 29.0442 2.5546H24.6209V1.00195H29.0442C32.3313 1.00195 34.996 3.66668 34.996 6.95378V10.9728H33.4433V6.95378ZM29.0419 33.4432C31.4715 33.4432 33.4411 31.4737 33.4411 29.0441V25.0251H34.9937V29.0441C34.9937 32.3312 32.329 34.9959 29.0419 34.9959H24.6187V33.4432H29.0419ZM25.0615 20.0596C25.4265 20.2479 25.7046 20.174 25.8956 19.8378C26.1186 19.4457 26.0555 19.1415 25.7064 18.9252C25.4648 18.7755 23.8201 18.5709 20.7725 18.3114L18.2332 17.988C18.3446 17.7919 18.6208 17.3381 19.0617 16.6264C19.5294 15.9314 19.9121 15.3541 20.2096 14.8946L22.0188 12.0953L22.3771 11.465C22.5314 11.2576 22.6403 11.0978 22.704 10.9858C22.8105 10.8624 22.8797 10.7726 22.9115 10.7166C23.1185 10.3525 23.0475 10.0623 22.6984 9.84599C22.3225 9.61309 22.031 9.67871 21.824 10.0428L21.6807 10.2949C21.628 10.4516 21.5194 10.7064 21.3552 11.0591C21.2069 11.3839 21.0029 11.8067 20.7431 12.3275C20.5102 12.865 20.1364 13.6182 19.6218 14.5872C19.1501 15.5449 18.5932 16.6202 17.9512 17.8133L16.5271 15.6242C15.7933 14.4878 15.1461 13.5187 14.5854 12.7167C14.0515 11.9314 13.7308 11.5055 13.6234 11.439C13.2743 11.2227 12.9883 11.3106 12.7654 11.7028C12.5743 12.0389 12.6453 12.3291 12.9785 12.5734C13.1933 12.7065 14.3079 14.0031 16.3224 16.4633L17.7035 18.0575C16.8439 18.5477 15.7571 19.0863 14.4429 19.6736L11.3898 21.0204C10.6526 21.3591 10.2522 21.5845 10.1885 21.6965C10.0611 21.9206 10.0381 22.1526 10.1196 22.3925C10.3026 22.5816 10.4503 22.6731 10.5627 22.667C10.7775 22.8001 11.5037 22.4167 12.7414 21.517C12.9016 21.4268 13.2752 21.1848 13.8621 20.7909C14.4919 20.3857 15.1431 19.9748 15.8156 19.5582C16.5309 19.1302 17.2089 18.7359 17.8496 18.3753C17.8112 20.359 17.7529 22.1221 17.6749 23.6645L17.5441 26.4811C17.5082 26.7997 17.5574 27.0007 17.6917 27.0838C17.7404 27.1898 17.8881 27.2813 18.1347 27.3583C18.3704 27.3908 18.5679 27.2669 18.7272 26.9868C18.8068 26.8467 18.6944 25.2242 18.39 22.1191C18.2542 20.6335 18.1865 19.3795 18.1868 18.357L20.189 18.8588C23.2762 19.5596 24.9004 19.9598 25.0615 20.0596Z"/>
</mask>
<path fill-rule="evenodd" clip-rule="evenodd" d="M6.95207 2.55265C4.52247 2.55265 2.55289 4.52223 2.55289 6.95183V10.9708H1.00024V6.95183C1.00024 3.66473 3.66497 1 6.95207 1H11.3753V2.55265H6.95207ZM6.95182 33.4406C4.52223 33.4406 2.55265 31.471 2.55265 29.0414V25.0224H1V29.0414C1 32.3285 3.66472 34.9932 6.95182 34.9932H11.3751V33.4406H6.95182ZM33.4433 6.95378C33.4433 4.52418 31.4738 2.5546 29.0442 2.5546H24.6209V1.00195H29.0442C32.3313 1.00195 34.996 3.66668 34.996 6.95378V10.9728H33.4433V6.95378ZM29.0419 33.4432C31.4715 33.4432 33.4411 31.4737 33.4411 29.0441V25.0251H34.9937V29.0441C34.9937 32.3312 32.329 34.9959 29.0419 34.9959H24.6187V33.4432H29.0419ZM25.0615 20.0596C25.4265 20.2479 25.7046 20.174 25.8956 19.8378C26.1186 19.4457 26.0555 19.1415 25.7064 18.9252C25.4648 18.7755 23.8201 18.5709 20.7725 18.3114L18.2332 17.988C18.3446 17.7919 18.6208 17.3381 19.0617 16.6264C19.5294 15.9314 19.9121 15.3541 20.2096 14.8946L22.0188 12.0953L22.3771 11.465C22.5314 11.2576 22.6403 11.0978 22.704 10.9858C22.8105 10.8624 22.8797 10.7726 22.9115 10.7166C23.1185 10.3525 23.0475 10.0623 22.6984 9.84599C22.3225 9.61309 22.031 9.67871 21.824 10.0428L21.6807 10.2949C21.628 10.4516 21.5194 10.7064 21.3552 11.0591C21.2069 11.3839 21.0029 11.8067 20.7431 12.3275C20.5102 12.865 20.1364 13.6182 19.6218 14.5872C19.1501 15.5449 18.5932 16.6202 17.9512 17.8133L16.5271 15.6242C15.7933 14.4878 15.1461 13.5187 14.5854 12.7167C14.0515 11.9314 13.7308 11.5055 13.6234 11.439C13.2743 11.2227 12.9883 11.3106 12.7654 11.7028C12.5743 12.0389 12.6453 12.3291 12.9785 12.5734C13.1933 12.7065 14.3079 14.0031 16.3224 16.4633L17.7035 18.0575C16.8439 18.5477 15.7571 19.0863 14.4429 19.6736L11.3898 21.0204C10.6526 21.3591 10.2522 21.5845 10.1885 21.6965C10.0611 21.9206 10.0381 22.1526 10.1196 22.3925C10.3026 22.5816 10.4503 22.6731 10.5627 22.667C10.7775 22.8001 11.5037 22.4167 12.7414 21.517C12.9016 21.4268 13.2752 21.1848 13.8621 20.7909C14.4919 20.3857 15.1431 19.9748 15.8156 19.5582C16.5309 19.1302 17.2089 18.7359 17.8496 18.3753C17.8112 20.359 17.7529 22.1221 17.6749 23.6645L17.5441 26.4811C17.5082 26.7997 17.5574 27.0007 17.6917 27.0838C17.7404 27.1898 17.8881 27.2813 18.1347 27.3583C18.3704 27.3908 18.5679 27.2669 18.7272 26.9868C18.8068 26.8467 18.6944 25.2242 18.39 22.1191C18.2542 20.6335 18.1865 19.3795 18.1868 18.357L20.189 18.8588C23.2762 19.5596 24.9004 19.9598 25.0615 20.0596Z" fill="#222222"/>
<path d="M2.55289 10.9708V11.2708H2.85289V10.9708H2.55289ZM1.00024 10.9708H0.700245V11.2708H1.00024V10.9708ZM11.3753 1H11.6753V0.7H11.3753V1ZM11.3753 2.55265V2.85265H11.6753V2.55265H11.3753ZM2.55265 25.0224H2.85265V24.7224H2.55265V25.0224ZM1 25.0224V24.7224H0.7V25.0224H1ZM11.3751 34.9932V35.2932H11.6751V34.9932H11.3751ZM11.3751 33.4406H11.6751V33.1406H11.3751V33.4406ZM24.6209 2.5546H24.3209V2.8546H24.6209V2.5546ZM24.6209 1.00195V0.701953H24.3209V1.00195H24.6209ZM34.996 10.9728V11.2728H35.296V10.9728H34.996ZM33.4433 10.9728H33.1433V11.2728H33.4433V10.9728ZM33.4411 25.0251V24.7251H33.1411V25.0251H33.4411ZM34.9937 25.0251H35.2937V24.7251H34.9937V25.0251ZM24.6187 34.9959H24.3187V35.2959H24.6187V34.9959ZM24.6187 33.4432V33.1432H24.3187V33.4432H24.6187ZM25.8956 19.8378L25.6348 19.6896L25.6348 19.6896L25.8956 19.8378ZM25.0615 20.0596L24.9035 20.3147L24.9135 20.3209L24.924 20.3263L25.0615 20.0596ZM25.7064 18.9252L25.5484 19.1802L25.5484 19.1802L25.7064 18.9252ZM20.7725 18.3114L20.7346 18.6092L20.7471 18.6103L20.7725 18.3114ZM18.2332 17.988L17.9724 17.8397L17.7511 18.229L18.1953 18.2856L18.2332 17.988ZM19.0617 16.6264L18.8126 16.4588L18.8067 16.4684L19.0617 16.6264ZM20.2096 14.8946L20.4614 15.0576L20.4616 15.0574L20.2096 14.8946ZM22.0188 12.0953L22.2708 12.2581L22.2754 12.2509L22.2796 12.2435L22.0188 12.0953ZM22.3771 11.465L22.1364 11.286L22.1254 11.3008L22.1163 11.3168L22.3771 11.465ZM22.704 10.9858L22.4769 10.7898L22.4577 10.812L22.4432 10.8375L22.704 10.9858ZM22.9115 10.7166L23.1723 10.8649L23.1723 10.8649L22.9115 10.7166ZM22.6984 9.84599L22.8564 9.59097L22.8564 9.59097L22.6984 9.84599ZM21.824 10.0428L22.0848 10.1911L22.0848 10.1911L21.824 10.0428ZM21.6807 10.2949L21.4199 10.1467L21.4056 10.1718L21.3964 10.1992L21.6807 10.2949ZM21.3552 11.0591L21.0832 10.9325L21.0823 10.9345L21.3552 11.0591ZM20.7431 12.3275L20.4746 12.1936L20.471 12.2008L20.4678 12.2082L20.7431 12.3275ZM19.6218 14.5872L19.3568 14.4465L19.3527 14.4547L19.6218 14.5872ZM17.9512 17.8133L17.6998 17.9769L17.9757 18.401L18.2154 17.9555L17.9512 17.8133ZM16.5271 15.6242L16.275 15.7869L16.2756 15.7878L16.5271 15.6242ZM14.5854 12.7167L14.3372 12.8854L14.3395 12.8887L14.5854 12.7167ZM13.6234 11.439L13.7814 11.1839L13.7814 11.1839L13.6234 11.439ZM12.7654 11.7028L12.5046 11.5545L12.5046 11.5545L12.7654 11.7028ZM12.9785 12.5734L12.8011 12.8153L12.8105 12.8223L12.8205 12.8284L12.9785 12.5734ZM16.3224 16.4633L16.0902 16.6534L16.0956 16.6597L16.3224 16.4633ZM17.7035 18.0575L17.8521 18.3182L18.1694 18.1372L17.9302 17.8611L17.7035 18.0575ZM14.4429 19.6736L14.564 19.948L14.5653 19.9475L14.4429 19.6736ZM11.3898 21.0204L11.2687 20.7459L11.2645 20.7478L11.3898 21.0204ZM10.1885 21.6965L9.92768 21.5483L9.92768 21.5483L10.1885 21.6965ZM10.1196 22.3925L9.83557 22.489L9.85722 22.5527L9.90402 22.6011L10.1196 22.3925ZM10.5627 22.667L10.7207 22.4119L10.6405 22.3623L10.5464 22.3674L10.5627 22.667ZM12.7414 21.517L12.5943 21.2555L12.5791 21.2641L12.565 21.2743L12.7414 21.517ZM13.8621 20.7909L13.6998 20.5386L13.695 20.5418L13.8621 20.7909ZM15.8156 19.5582L15.6616 19.3007L15.6576 19.3032L15.8156 19.5582ZM17.8496 18.3753L18.1496 18.3811L18.1597 17.8566L17.7025 18.1139L17.8496 18.3753ZM17.6749 23.6645L17.3752 23.6493L17.3752 23.6506L17.6749 23.6645ZM17.5441 26.4811L17.8423 26.5147L17.8434 26.5049L17.8438 26.495L17.5441 26.4811ZM17.6917 27.0838L17.9642 26.9585L17.9265 26.8764L17.8497 26.8288L17.6917 27.0838ZM18.1347 27.3583L18.0452 27.6447L18.0691 27.6521L18.0938 27.6555L18.1347 27.3583ZM18.7272 26.9868L18.988 27.1351L18.988 27.1351L18.7272 26.9868ZM18.39 22.1191L18.0913 22.1464L18.0915 22.1483L18.39 22.1191ZM18.1868 18.357L18.2598 18.066L17.8869 17.9725L17.8868 18.3569L18.1868 18.357ZM20.189 18.8588L20.116 19.1499L20.1226 19.1514L20.189 18.8588ZM2.85289 6.95183C2.85289 4.68791 4.68816 2.85265 6.95207 2.85265V2.25265C4.35679 2.25265 2.25289 4.35654 2.25289 6.95183H2.85289ZM2.85289 10.9708V6.95183H2.25289V10.9708H2.85289ZM1.00024 11.2708H2.55289V10.6708H1.00024V11.2708ZM0.700245 6.95183V10.9708H1.30024V6.95183H0.700245ZM6.95207 0.7C3.49928 0.7 0.700245 3.49904 0.700245 6.95183H1.30024C1.30024 3.83041 3.83065 1.3 6.95207 1.3V0.7ZM11.3753 0.7H6.95207V1.3H11.3753V0.7ZM11.6753 2.55265V1H11.0753V2.55265H11.6753ZM6.95207 2.85265H11.3753V2.25265H6.95207V2.85265ZM2.25265 29.0414C2.25265 31.6367 4.35654 33.7406 6.95182 33.7406V33.1406C4.68791 33.1406 2.85265 31.3053 2.85265 29.0414H2.25265ZM2.25265 25.0224V29.0414H2.85265V25.0224H2.25265ZM1 25.3224H2.55265V24.7224H1V25.3224ZM1.3 29.0414V25.0224H0.7V29.0414H1.3ZM6.95182 34.6932C3.83041 34.6932 1.3 32.1628 1.3 29.0414H0.7C0.7 32.4942 3.49904 35.2932 6.95182 35.2932V34.6932ZM11.3751 34.6932H6.95182V35.2932H11.3751V34.6932ZM11.0751 33.4406V34.9932H11.6751V33.4406H11.0751ZM6.95182 33.7406H11.3751V33.1406H6.95182V33.7406ZM29.0442 2.8546C31.3081 2.8546 33.1433 4.68987 33.1433 6.95378H33.7433C33.7433 4.3585 31.6395 2.2546 29.0442 2.2546V2.8546ZM24.6209 2.8546H29.0442V2.2546H24.6209V2.8546ZM24.3209 1.00195V2.5546H24.9209V1.00195H24.3209ZM29.0442 0.701953H24.6209V1.30195H29.0442V0.701953ZM35.296 6.95378C35.296 3.50099 32.497 0.701953 29.0442 0.701953V1.30195C32.1656 1.30195 34.696 3.83236 34.696 6.95378H35.296ZM35.296 10.9728V6.95378H34.696V10.9728H35.296ZM33.4433 11.2728H34.996V10.6728H33.4433V11.2728ZM33.1433 6.95378V10.9728H33.7433V6.95378H33.1433ZM33.1411 29.0441C33.1411 31.308 31.3058 33.1432 29.0419 33.1432V33.7432C31.6372 33.7432 33.7411 31.6393 33.7411 29.0441H33.1411ZM33.1411 25.0251V29.0441H33.7411V25.0251H33.1411ZM34.9937 24.7251H33.4411V25.3251H34.9937V24.7251ZM35.2937 29.0441V25.0251H34.6937V29.0441H35.2937ZM29.0419 35.2959C32.4947 35.2959 35.2937 32.4968 35.2937 29.0441H34.6937C34.6937 32.1655 32.1633 34.6959 29.0419 34.6959V35.2959ZM24.6187 35.2959H29.0419V34.6959H24.6187V35.2959ZM24.3187 33.4432V34.9959H24.9187V33.4432H24.3187ZM29.0419 33.1432H24.6187V33.7432H29.0419V33.1432ZM25.6348 19.6896C25.5649 19.8125 25.5041 19.8455 25.4667 19.8555C25.4252 19.8665 25.3435 19.8675 25.1991 19.793L24.924 20.3263C25.1446 20.44 25.3843 20.4982 25.6209 20.4353C25.8615 20.3713 26.0353 20.1993 26.1564 19.9861L25.6348 19.6896ZM25.5484 19.1802C25.6765 19.2596 25.7119 19.3285 25.7218 19.3765C25.7331 19.4308 25.7263 19.5287 25.6348 19.6896L26.1564 19.9861C26.288 19.7548 26.3611 19.5045 26.3093 19.2547C26.2562 18.9984 26.0854 18.8071 25.8645 18.6702L25.5484 19.1802ZM20.7471 18.6103C22.2696 18.7399 23.4382 18.8556 24.2547 18.9571C24.6634 19.008 24.9799 19.0548 25.2068 19.0975C25.3204 19.1188 25.4074 19.1383 25.4703 19.1557C25.5411 19.1752 25.5573 19.1857 25.5484 19.1802L25.8645 18.6702C25.7951 18.6272 25.7072 18.5986 25.6299 18.5773C25.5446 18.5538 25.4396 18.5307 25.3175 18.5078C25.0728 18.4618 24.7423 18.4132 24.3288 18.3617C23.5006 18.2587 22.323 18.1423 20.798 18.0124L20.7471 18.6103ZM18.1953 18.2856L20.7346 18.609L20.8104 18.0138L18.2711 17.6904L18.1953 18.2856ZM18.8067 16.4684C18.3667 17.1785 18.0872 17.6377 17.9724 17.8397L18.494 18.1363C18.6021 17.9462 18.8749 17.4976 19.3167 16.7844L18.8067 16.4684ZM19.9578 14.7315C19.6616 15.189 19.28 15.7647 18.8128 16.4589L19.3106 16.7939C19.7788 16.0981 20.1625 15.5192 20.4614 15.0576L19.9578 14.7315ZM21.7669 11.9324L19.9577 14.7317L20.4616 15.0574L22.2708 12.2581L21.7669 11.9324ZM22.1163 11.3168L21.758 11.947L22.2796 12.2435L22.6379 11.6133L22.1163 11.3168ZM22.4432 10.8375C22.389 10.933 22.289 11.0807 22.1364 11.286L22.6179 11.644C22.7737 11.4344 22.8917 11.2627 22.9648 11.134L22.4432 10.8375ZM22.6507 10.5683C22.6351 10.5958 22.5841 10.6655 22.4769 10.7898L22.9312 11.1817C23.0369 11.0592 23.1242 10.9494 23.1723 10.8649L22.6507 10.5683ZM22.5404 10.101C22.6736 10.1835 22.7114 10.2533 22.7221 10.2972C22.7332 10.3424 22.7317 10.426 22.6507 10.5683L23.1723 10.8649C23.2984 10.6431 23.3648 10.3995 23.3049 10.1545C23.2446 9.90821 23.0723 9.72471 22.8564 9.59097L22.5404 10.101ZM22.0848 10.1911C22.1639 10.0521 22.2293 10.021 22.2638 10.0132C22.3028 10.0044 22.3875 10.0063 22.5404 10.101L22.8564 9.59097C22.6334 9.45282 22.3845 9.37102 22.132 9.42785C21.875 9.48571 21.6912 9.66948 21.5632 9.89459L22.0848 10.1911ZM21.9415 10.4432L22.0848 10.1911L21.5632 9.89458L21.4199 10.1467L21.9415 10.4432ZM21.6272 11.1858C21.7915 10.8327 21.9064 10.5647 21.965 10.3907L21.3964 10.1992C21.3495 10.3386 21.2473 10.58 21.0832 10.9325L21.6272 11.1858ZM21.0115 12.4614C21.272 11.9392 21.4778 11.5129 21.6281 11.1838L21.0823 10.9345C20.936 11.2548 20.7337 11.6742 20.4746 12.1936L21.0115 12.4614ZM19.8868 14.7279C20.4025 13.7568 20.7806 12.9953 21.0183 12.4468L20.4678 12.2082C20.2397 12.7347 19.8703 13.4796 19.3569 14.4465L19.8868 14.7279ZM18.2154 17.9555C18.8587 16.76 19.4172 15.6814 19.891 14.7198L19.3527 14.4547C18.8829 15.4084 18.3277 16.4805 17.6871 17.6712L18.2154 17.9555ZM16.2756 15.7878L17.6998 17.9769L18.2027 17.6497L16.7785 15.4606L16.2756 15.7878ZM14.3395 12.8887C14.8975 13.6867 15.5426 14.6526 16.275 15.7869L16.7791 15.4615C16.0441 14.3231 15.3947 13.3507 14.8312 12.5448L14.3395 12.8887ZM13.4654 11.694C13.4488 11.6837 13.4622 11.6894 13.5175 11.7531C13.5645 11.8071 13.6266 11.8848 13.7048 11.9887C13.8608 12.196 14.0713 12.4942 14.3373 12.8854L14.8335 12.5481C14.5655 12.154 14.3488 11.8466 14.1841 11.6279C14.102 11.5188 14.0304 11.4286 13.9704 11.3594C13.9187 11.3 13.8517 11.2275 13.7814 11.1839L13.4654 11.694ZM13.0262 11.8511C13.1186 11.6885 13.195 11.6419 13.2353 11.6295C13.268 11.6194 13.3359 11.6137 13.4654 11.694L13.7814 11.1839C13.5619 11.0479 13.3123 10.9781 13.0589 11.056C12.8132 11.1315 12.6351 11.325 12.5046 11.5545L13.0262 11.8511ZM13.1559 12.3315C13.0246 12.2352 12.9801 12.1556 12.9668 12.1012C12.9543 12.0505 12.957 11.9728 13.0262 11.8511L12.5046 11.5545C12.3827 11.7689 12.3254 12.0044 12.384 12.2439C12.4417 12.4797 12.5993 12.6674 12.8011 12.8153L13.1559 12.3315ZM16.5545 16.2732C15.5468 15.0425 14.7627 14.1012 14.2031 13.4501C13.9234 13.1248 13.6981 12.87 13.528 12.6871C13.4431 12.5958 13.3699 12.5202 13.3094 12.4619C13.2546 12.409 13.1934 12.3536 13.1365 12.3184L12.8205 12.8284C12.8173 12.8264 12.8379 12.8407 12.893 12.8938C12.9424 12.9415 13.0073 13.0083 13.0886 13.0957C13.2509 13.2702 13.4704 13.5182 13.7481 13.8412C14.303 14.4868 15.0835 15.4238 16.0903 16.6533L16.5545 16.2732ZM17.9302 17.8611L16.5491 16.2668L16.0956 16.6597L17.4767 18.254L17.9302 17.8611ZM14.5653 19.9475C15.8848 19.3579 16.9811 18.8148 17.8521 18.3182L17.5549 17.7969C16.7067 18.2806 15.6294 18.8148 14.3205 19.3997L14.5653 19.9475ZM11.5109 21.2949L14.564 19.948L14.3218 19.3991L11.2687 20.7459L11.5109 21.2949ZM10.4493 21.8448C10.4307 21.8775 10.4201 21.8744 10.4758 21.8339C10.5206 21.8013 10.5885 21.7585 10.6837 21.7049C10.8734 21.5982 11.1492 21.4611 11.515 21.293L11.2645 20.7478C10.8932 20.9184 10.6002 21.0634 10.3894 21.182C10.2845 21.2411 10.1942 21.2968 10.123 21.3486C10.0626 21.3925 9.9781 21.4596 9.92768 21.5483L10.4493 21.8448ZM10.4037 22.296C10.3503 22.1389 10.3634 21.9959 10.4493 21.8448L9.92768 21.5483C9.75878 21.8454 9.72597 22.1663 9.83557 22.489L10.4037 22.296ZM10.5464 22.3674C10.5765 22.3658 10.5737 22.3777 10.5256 22.3479C10.4806 22.32 10.4174 22.2687 10.3352 22.1839L9.90402 22.6011C10.0049 22.7053 10.1069 22.7943 10.2096 22.8579C10.3092 22.9196 10.4364 22.9743 10.579 22.9665L10.5464 22.3674ZM12.565 21.2743C11.9497 21.7216 11.4724 22.0324 11.1284 22.214C10.9552 22.3054 10.8285 22.3572 10.7426 22.38C10.6388 22.4076 10.6619 22.3755 10.7207 22.4119L10.4047 22.922C10.5708 23.0249 10.7653 22.9948 10.8968 22.9599C11.0461 22.9202 11.2186 22.8448 11.4085 22.7446C11.7908 22.5428 12.2955 22.212 12.9178 21.7596L12.565 21.2743ZM13.695 20.5418C13.1046 20.938 12.7419 21.1724 12.5943 21.2555L12.8885 21.7784C13.0612 21.6812 13.4457 21.4316 14.0293 21.0401L13.695 20.5418ZM15.6576 19.3032C14.9837 19.7206 14.3311 20.1325 13.6998 20.5387L14.0245 21.0432C14.6527 20.639 15.3024 20.229 15.9736 19.8132L15.6576 19.3032ZM17.7025 18.1139C17.0592 18.4759 16.3789 18.8716 15.6616 19.3007L15.9696 19.8156C16.683 19.3888 17.3587 18.9959 17.9967 18.6368L17.7025 18.1139ZM17.9745 23.6797C18.0527 22.1334 18.1111 20.3671 18.1496 18.3811L17.5497 18.3695C17.5113 20.3509 17.4531 22.1107 17.3752 23.6493L17.9745 23.6797ZM17.8438 26.495L17.9745 23.6784L17.3752 23.6506L17.2445 26.4672L17.8438 26.495ZM17.8497 26.8288C17.8681 26.8402 17.8574 26.8481 17.8455 26.7995C17.8326 26.7468 17.8263 26.6561 17.8423 26.5147L17.246 26.4475C17.2261 26.6248 17.2264 26.7938 17.2627 26.9421C17.3 27.0944 17.381 27.2443 17.5337 27.3389L17.8497 26.8288ZM18.2242 27.072C18.1144 27.0377 18.0417 27.0046 17.997 26.9769C17.9501 26.9479 17.9547 26.9377 17.9642 26.9585L17.4191 27.2092C17.4774 27.3359 17.5801 27.4244 17.681 27.4869C17.7839 27.5507 17.9083 27.6019 18.0452 27.6447L18.2242 27.072ZM18.4664 26.8385C18.4024 26.9511 18.3439 27.0082 18.3002 27.0356C18.2625 27.0593 18.2253 27.068 18.1756 27.0611L18.0938 27.6555C18.2799 27.6811 18.4593 27.6441 18.619 27.5439C18.7728 27.4475 18.8927 27.3026 18.988 27.1351L18.4664 26.8385ZM18.0915 22.1483C18.2436 23.7001 18.3474 24.8786 18.4033 25.6856C18.4313 26.0896 18.447 26.3966 18.4509 26.6094C18.4529 26.7163 18.4518 26.7941 18.4486 26.8462C18.447 26.8726 18.4451 26.887 18.4441 26.8926C18.4417 26.9069 18.4441 26.8777 18.4664 26.8385L18.988 27.1351C19.0202 27.0784 19.031 27.0201 19.0356 26.9937C19.0415 26.9587 19.0451 26.9208 19.0474 26.8833C19.0521 26.8078 19.0529 26.7116 19.0508 26.5982C19.0466 26.3703 19.0301 26.0513 19.0019 25.6441C18.9454 24.8284 18.8409 23.6431 18.6886 22.0898L18.0915 22.1483ZM17.8868 18.3569C17.8865 19.3916 17.955 20.6554 18.0913 22.1464L18.6888 22.0918C18.5535 20.6116 18.4865 19.3673 18.4868 18.3571L17.8868 18.3569ZM20.2619 18.5679L18.2598 18.066L18.1139 18.648L20.116 19.1498L20.2619 18.5679ZM25.2195 19.8046C25.1646 19.7706 25.0877 19.7436 25.0271 19.7234C24.9547 19.6994 24.8609 19.6714 24.7473 19.6396C24.5196 19.5758 24.2014 19.4936 23.7943 19.3933C22.9795 19.1925 21.7995 18.9168 20.2554 18.5663L20.1226 19.1514C21.6657 19.5016 22.8414 19.7764 23.6508 19.9759C24.0558 20.0757 24.3668 20.1561 24.5855 20.2173C24.695 20.248 24.7786 20.2731 24.838 20.2928C24.9091 20.3164 24.9182 20.3238 24.9035 20.3147L25.2195 19.8046Z" fill="#222222" mask="url(#path-1-outside-1_1046_7749)"/>
</svg>
