<svg width="36" height="36" viewBox="0 0 36 36" fill="none" xmlns="http://www.w3.org/2000/svg">
<path d="M35 6.66667H28.9556C25.7818 6.66667 24.1952 6.66667 22.9829 7.2843C21.9166 7.82758 21.0498 8.69446 20.5066 9.76072C19.8889 10.9729 19.8889 12.5597 19.8889 15.7333V18M35 6.66667L29.3333 1M35 6.66667L29.3333 12.3333M14.2222 1H10.0667C6.89303 1 5.30621 1 4.09406 1.61763C3.0278 2.16091 2.16091 3.0278 1.61763 4.09406C1 5.30621 1 6.89303 1 10.0667V25.9333C1 29.107 1 30.6937 1.61763 31.906C2.16091 32.9723 3.0278 33.8391 4.09406 34.3823C5.30621 35 6.89303 35 10.0667 35H25.9333C29.107 35 30.6937 35 31.906 34.3823C32.9723 33.8391 33.8391 32.9723 34.3823 31.906C35 30.6937 35 29.107 35 25.9333V21.7778" stroke="black" stroke-width="2" stroke-linecap="round" stroke-linejoin="round"/>
</svg>
