<svg width="35" height="34" viewBox="0 0 35 34" fill="none" xmlns="http://www.w3.org/2000/svg">
<path fill-rule="evenodd" clip-rule="evenodd" d="M21.0875 2.51855C13.8725 0.618672 6.50061 4.09393 3.36414 10.4126L6.00458 10.5712C6.55587 10.6043 6.97595 11.078 6.94285 11.6293C6.90975 12.1806 6.43601 12.6007 5.88472 12.5676L1.81271 12.3231C1.49447 12.304 1.20441 12.1343 1.03183 11.8662C0.859245 11.5982 0.824822 11.2639 0.939157 10.9663C4.04384 2.88495 12.941 -1.6948 21.5968 0.584485C30.8202 3.01324 36.3288 12.3273 33.8522 21.4105C31.3776 30.4868 21.8815 35.8391 12.6643 33.4121L12.6643 33.4121C5.81359 31.608 1.01605 26.01 0.0119221 19.5261C-0.0725999 18.9803 0.301323 18.4694 0.847101 18.3848C1.39288 18.3003 1.90384 18.6742 1.98836 19.22C2.87224 24.9274 7.1016 29.879 13.1736 31.478C21.3609 33.6339 29.7453 28.8702 31.9226 20.8844L31.9226 20.8844C34.0981 12.9056 29.2687 4.67288 21.0875 2.51855ZM17.6817 10.5989C17.6817 10.0466 17.234 9.59887 16.6817 9.59887C16.1294 9.59887 15.6817 10.0466 15.6817 10.5989V16.9982C15.6817 17.2658 15.789 17.5223 15.9795 17.7102L19.224 20.9098C19.6172 21.2976 20.2503 21.2932 20.6381 20.9C21.0259 20.5068 21.0215 19.8736 20.6283 19.4858L17.6817 16.5799V10.5989Z" fill="black"/>
</svg>
